<svg xmlns="http://www.w3.org/2000/svg" viewBox="0 0 128 128" role="img" aria-label="openai logo">
  <rect width="128" height="128" rx="22" fill="#0B1724"/>
  <g fill="none" stroke="#FFFFFF" stroke-linecap="round" stroke-linejoin="round" stroke-width="7.5">
    <path d="M64 29c9 0 16 7 16 16 0 4-1 7-3 10l11 6c4-2 8-2 12 0 8 5 10 15 5 23-2 3-5 6-9 7v12c0 9-7 16-16 16-4 0-7-1-10-3l-11 6c-8 5-18 3-23-5-2-4-2-8 0-12l-11-6c-8-5-10-15-5-23 2-3 5-6 9-7V45c0-9 7-16 16-16 4 0 7 1 10 3l11-6c2-1 5-2 8-2z"/>
    <path d="M48 38l16 9"/>
    <path d="M80 90l-16 9"/>
    <path d="M39 64h18"/>
    <path d="M71 64h18"/>
    <path d="M48 90l16-9"/>
    <path d="M80 38l-16 9"/>
  </g>
</svg>
