<svg width="96" height="96" viewBox="0 0 64 64" fill="none" xmlns="http://www.w3.org/2000/svg">
  <defs>
    <linearGradient id="dm-light-bg" x1="7" y1="7" x2="59" y2="59" gradientUnits="userSpaceOnUse">
      <stop stop-color="#F8FCFF" />
      <stop offset="1" stop-color="#EAF3FF" />
    </linearGradient>
    <linearGradient id="dm-light-border" x1="7" y1="7" x2="59" y2="59" gradientUnits="userSpaceOnUse">
      <stop stop-color="#38bdf8" />
      <stop offset="1" stop-color="#1d4ed8" />
    </linearGradient>
  </defs>
  <rect x="4" y="4" width="56" height="56" rx="16" fill="url(#dm-light-bg)" stroke="url(#dm-light-border)" stroke-width="2.6" />
  <rect x="9" y="9" width="46" height="46" rx="12" fill="none" stroke="#0ea5e9" stroke-opacity="0.35" />
  <path
    d="M20 18V46H30C40 46 46 40 46 32C46 24 40 18 30 18H20Z"
    stroke="#1d4ed8"
    stroke-width="3.2"
    stroke-linecap="round"
    stroke-linejoin="round"
  />
  <path
    d="M24 39L31.5 27L37 34L44 24"
    stroke="#0284c7"
    stroke-width="3.2"
    stroke-linecap="round"
    stroke-linejoin="round"
  />
  <circle cx="24" cy="39" r="2.1" fill="#2563eb" />
  <circle cx="44" cy="24" r="2.3" fill="#0ea5e9" />
  <path d="M45.6 16.8V19M45.6 22.8V25M42.8 20.8H44.8M46.4 20.8H48.4" stroke="#0369a1" stroke-width="1.1" />
</svg>
