<svg width="620" height="128" viewBox="0 0 620 128" fill="none" xmlns="http://www.w3.org/2000/svg">
  <defs>
    <linearGradient id="dm-lockup-dark-bg" x1="11" y1="11" x2="85" y2="85" gradientUnits="userSpaceOnUse">
      <stop stop-color="#081833" />
      <stop offset="1" stop-color="#020915" />
    </linearGradient>
    <linearGradient id="dm-lockup-dark-border" x1="10" y1="10" x2="90" y2="90" gradientUnits="userSpaceOnUse">
      <stop stop-color="#38bdf8" />
      <stop offset="1" stop-color="#2563eb" />
    </linearGradient>
    <linearGradient id="dm-lockup-dark-mind" x1="270" y1="60" x2="420" y2="60" gradientUnits="userSpaceOnUse">
      <stop stop-color="#7dd3fc" />
      <stop offset="1" stop-color="#22d3ee" />
    </linearGradient>
  </defs>

  <g transform="translate(10 18)">
    <rect x="0" y="0" width="74" height="74" rx="20" fill="url(#dm-lockup-dark-bg)" stroke="url(#dm-lockup-dark-border)" stroke-width="3" />
    <rect x="7" y="7" width="60" height="60" rx="16" fill="none" stroke="#0ea5e9" stroke-opacity="0.35" />
    <path
      d="M22 18V56H34C47 56 56 48 56 37C56 26 47 18 34 18H22Z"
      stroke="#3b82f6"
      stroke-width="4"
      stroke-linecap="round"
      stroke-linejoin="round"
    />
    <path
      d="M26 49L34.5 35L41 43L52 29"
      stroke="#22d3ee"
      stroke-width="4"
      stroke-linecap="round"
      stroke-linejoin="round"
    />
    <circle cx="26" cy="49" r="2.6" fill="#60a5fa" />
    <circle cx="52" cy="29" r="2.8" fill="#22d3ee" />
  </g>

  <text
    x="104"
    y="68"
    fill="#F1F5F9"
    font-size="48"
    font-family="Space Grotesk, Sora, Segoe UI, Arial, sans-serif"
    font-weight="700"
    letter-spacing="1.4"
  >
    Demumu<tspan fill="url(#dm-lockup-dark-mind)">Mind</tspan>
  </text>
  <text
    x="106"
    y="93"
    fill="#94A3B8"
    font-size="13"
    font-family="Space Grotesk, Sora, Segoe UI, Arial, sans-serif"
    font-weight="600"
    letter-spacing="5.8"
  >
    MCP DIRECTORY
  </text>
</svg>
